<?xml version="1.0" encoding="UTF-8" standalone="no"?>
<!DOCTYPE svg PUBLIC "-//W3C//DTD SVG 1.1//EN" "http://www.w3.org/Graphics/SVG/1.1/DTD/svg11.dtd">
<svg width="100%" height="100%" viewBox="0 0 64 64" version="1.1" xmlns="http://www.w3.org/2000/svg" xmlns:xlink="http://www.w3.org/1999/xlink" xml:space="preserve" xmlns:serif="http://www.serif.com/" style="fill-rule:evenodd;clip-rule:evenodd;stroke-linecap:round;stroke-linejoin:round;stroke-miterlimit:1.5;">
    <rect id="Background" x="0" y="0" width="64" height="64" style="fill:rgb(21,21,21);stroke:rgb(21,21,21);stroke-width:1px;"/>
    <g id="Taskington">
        <path d="M11.738,18.786C11.586,18.64 11.359,18.493 11.033,18.44C11.004,18.435 10.963,18.432 10.913,18.432C10.44,18.178 9.838,18.251 9.439,18.65C9.061,19.027 9.015,19.366 9.001,19.555C8.993,19.664 8.998,19.768 9.014,19.865C8.966,20.123 8.999,20.397 9.125,20.648C9.673,21.744 10.035,23.021 10.667,24.125C11.478,25.542 12.212,27.15 12.703,28.72C13.62,31.656 13.786,34.85 14.164,37.872C14.276,38.769 14.154,39.751 14.154,40.655C14.154,41.578 14.278,42.612 14.099,43.507C13.999,44.009 13.996,44.549 13.874,45.037C13.824,45.236 13.806,45.467 13.742,45.659C13.757,45.614 13.814,45.494 13.814,45.494C13.814,45.494 13.559,46.297 13.588,46.476C13.635,46.764 13.765,46.996 13.955,47.181C14.141,47.363 14.411,47.543 14.849,47.543C15.059,47.543 15.367,47.481 15.702,47.328C15.959,47.211 16.275,46.992 16.463,46.939C17.609,46.611 18.736,46.278 19.902,46C23.45,45.156 27.104,44.472 30.697,43.873C34.114,43.304 37.513,42.691 40.957,42.294C45.008,41.826 49.052,41.811 53.112,41.586C54.208,41.525 55.293,41.581 56.359,41.734C56.525,41.757 56.668,41.747 56.823,41.779L57.087,41.888C57.907,42.223 58.428,41.642 58.452,41.618C58.638,41.432 58.835,41.119 58.851,40.662C58.859,40.448 58.76,39.9 58.737,39.778C58.723,38.765 58.438,37.742 58.336,36.719C58.171,35.075 58.068,33.397 57.941,31.745C57.726,28.949 56.954,26.195 56.584,23.418C56.265,21.026 56.406,18.579 56.109,16.202C56.073,15.917 55.867,14.905 55.823,14.692C55.908,14.502 56.008,14.264 56.008,14.264C56.008,14.264 55.991,14.287 55.97,14.314C56.195,14.019 56.408,13.368 56.408,13.368C56.408,13.368 55.186,14.352 55.186,14.352C55.186,14.352 56.8,11.852 55.177,11.852L54.71,11.852C54.301,11.852 53.91,11.945 53.52,12.075C52.761,12.328 51.97,12.481 51.205,12.69C48.797,13.346 46.228,13.581 43.773,14.015C38.853,14.883 33.879,15.501 28.976,16.481C26.388,16.999 23.841,17.524 21.222,17.815C18.382,18.13 15.685,18.998 12.864,18.998C12.608,18.998 12.318,18.969 12.057,18.903C11.943,18.874 11.762,18.796 11.738,18.786ZM53.317,14.733C52.831,14.859 52.343,14.971 51.862,15.102C49.382,15.778 46.737,16.03 44.207,16.477C39.307,17.341 34.35,17.956 29.466,18.933C26.807,19.465 24.189,20 21.498,20.299C18.565,20.625 15.777,21.498 12.864,21.498C12.64,21.498 12.404,21.481 12.166,21.448C12.364,21.939 12.576,22.427 12.837,22.883C13.735,24.453 14.546,26.236 15.089,27.975C16.05,31.052 16.249,34.395 16.645,37.562C16.769,38.559 16.654,39.65 16.654,40.655C16.654,41.737 16.761,42.948 16.551,43.997C16.529,44.106 16.511,44.217 16.496,44.329C17.433,44.06 18.365,43.796 19.323,43.568C22.926,42.71 26.637,42.015 30.286,41.407C33.744,40.831 37.185,40.213 40.671,39.81C44.771,39.337 48.864,39.318 52.973,39.089C54.059,39.029 55.136,39.068 56.197,39.192C56.113,38.453 55.922,37.711 55.848,36.968C55.682,35.304 55.577,33.608 55.448,31.937C55.237,29.187 54.47,26.48 54.106,23.748C53.786,21.35 53.926,18.896 53.628,16.512C53.588,16.193 53.377,15.501 53.329,14.959C53.322,14.882 53.318,14.807 53.317,14.733Z" style="fill:white;"/>
        <path d="M21.46,25.287C21.4,25.353 21.143,25.637 21.041,25.8C20.865,26.081 20.745,26.405 20.745,26.839C20.745,27.529 21.305,28.089 21.995,28.089C22.61,28.089 23.122,27.644 23.225,27.058C23.378,26.879 23.698,26.476 23.816,26.122C23.842,26.045 23.874,25.967 23.91,25.889C24.33,26.205 24.804,26.419 25.215,26.727C25.395,26.862 25.763,27.21 26.041,27.352C26.3,27.484 26.549,27.533 26.759,27.533C27.449,27.533 28.009,26.973 28.009,26.283C28.009,25.731 27.651,25.263 27.155,25.097C27.048,25.004 26.801,24.791 26.715,24.727C26.3,24.416 25.813,24.211 25.396,23.878C24.522,23.178 23.777,22.976 23.19,23.147C22.765,23.27 22.259,23.595 21.83,24.453C21.695,24.722 21.556,25.01 21.46,25.287Z" style="fill:white;"/>
        <path d="M42.377,25.04C42.419,24.967 42.574,24.703 42.663,24.56C42.82,24.308 42.953,24.057 43.032,23.82C43.149,23.468 43.311,23.141 43.429,22.787L43.469,22.67C44.106,22.906 44.693,23.198 45.282,23.591C45.539,23.762 45.934,24.085 46.297,24.268C46.63,24.436 46.96,24.516 47.246,24.516C47.936,24.516 48.496,23.955 48.496,23.266C48.496,22.634 48.026,22.111 47.417,22.028C47.307,21.95 46.843,21.627 46.669,21.511C45.789,20.925 44.915,20.512 43.938,20.184C43.865,20.152 43.445,19.969 43.209,19.934C42.879,19.885 42.552,19.927 42.24,20.083C41.982,20.212 41.687,20.477 41.474,20.88C41.286,21.235 41.135,21.764 41.057,21.997C40.94,22.35 40.777,22.678 40.66,23.029C40.587,23.248 40.385,23.472 40.251,23.707C40.018,24.116 39.882,24.538 39.882,24.933C39.882,25.623 40.442,26.183 41.132,26.183C41.785,26.183 42.323,25.68 42.377,25.04Z" style="fill:white;"/>
        <path d="M15.006,7.023C15.165,7.166 16.094,7.995 16.401,8.226C18.464,9.773 19.946,11.607 21.352,13.716C21.911,14.554 22.368,15.399 22.94,16.257C23.079,16.465 23.408,17.238 23.57,17.429C23.774,17.67 23.994,17.78 24.153,17.835C24.645,18.008 25.072,17.907 25.436,17.571C25.569,17.449 25.865,17.162 25.865,16.516C25.865,16.1 25.662,15.732 25.349,15.505C25.229,15.257 25.082,14.962 25.02,14.87C24.448,14.012 23.991,13.167 23.432,12.329C21.866,9.979 20.2,7.95 17.901,6.226C17.575,5.981 17.006,5.368 16.518,5.022C16.053,4.691 15.589,4.547 15.246,4.547C14.556,4.547 13.996,5.107 13.996,5.797C13.996,6.404 14.43,6.911 15.006,7.023Z" style="fill:white;"/>
        <path d="M44.553,2.043C44.686,1.845 44.764,1.606 44.764,1.35C44.764,0.649 44.352,0.382 44.194,0.278C43.826,0.037 43.381,-0.054 42.871,0.246C42.77,0.305 42.539,0.45 42.364,0.793C42.253,1.011 41.94,1.958 41.851,2.225C41.482,3.334 41.254,4.606 41.017,5.79C40.722,7.265 40.229,8.689 39.978,10.196C39.845,10.996 39.544,11.737 39.286,12.484C38.959,13.428 38.69,14.378 38.69,15.404C38.69,16.094 39.251,16.654 39.94,16.654C40.63,16.654 41.19,16.094 41.19,15.404C41.19,14.664 41.412,13.983 41.648,13.302C41.952,12.424 42.287,11.548 42.444,10.607C42.691,9.126 43.179,7.729 43.469,6.28C43.686,5.197 43.885,4.03 44.223,3.016C44.275,2.86 44.468,2.295 44.553,2.043ZM42.266,1.421C42.277,1.665 42.349,1.842 42.428,1.968C42.334,1.805 42.277,1.619 42.266,1.421Z" style="fill:white;"/>
        <path d="M31.921,35.762C31.767,35.666 31.587,35.595 31.377,35.561C31.223,35.537 30.884,35.571 30.631,35.604C30.132,35.241 29.49,34.906 29.065,34.693C28.894,34.608 28.799,34.426 28.687,34.274C28.496,34.019 28.313,33.771 28.12,33.578C27.632,33.09 26.84,33.09 26.352,33.578C25.864,34.065 25.864,34.858 26.352,35.345C26.563,35.556 26.742,35.866 26.969,36.133C27.245,36.457 27.566,36.739 27.947,36.929C28.319,37.115 28.967,37.404 29.29,37.728C29.485,37.923 29.746,38.072 30.082,38.126C30.258,38.154 30.674,38.105 30.929,38.07C31.221,38.195 31.584,38.275 31.999,38.275C32.916,38.275 34.175,37.931 34.589,37.739C34.62,37.735 34.825,37.71 34.935,37.7C35.212,37.675 35.485,37.635 35.73,37.553C36.303,37.362 36.886,37.194 37.477,36.997C39.479,36.33 40.58,34.787 41.456,33.035C41.814,32.318 42.143,31.68 42.143,30.809C42.143,30.119 41.583,29.559 40.893,29.559C40.203,29.559 39.643,30.119 39.643,30.809C39.643,31.253 39.402,31.552 39.219,31.917C38.641,33.074 38.009,34.185 36.687,34.626C36.095,34.823 35.513,34.99 34.94,35.181C34.781,35.234 34.592,35.218 34.415,35.238C34.089,35.275 33.778,35.351 33.505,35.487C33.299,35.591 32.177,35.731 31.921,35.762Z" style="fill:white;"/>
        <path d="M28.288,50.56L28.288,51.313L28.289,51.324C28.296,52.787 28.917,53.054 29.538,52.822C30.159,53.054 30.78,52.787 30.788,51.324L30.788,51.313L30.788,50.978C30.788,50.837 30.827,50.521 30.807,50.319C30.789,50.146 30.748,49.995 30.697,49.872L30.69,49.856L30.685,49.844L30.682,49.837L30.679,49.831C30.676,49.79 30.661,49.598 30.664,49.486C30.672,49.14 30.709,48.785 30.709,48.516C30.709,47.741 30.55,46.906 30.55,46.134C30.55,45.551 30.67,44.622 30.486,44.071C30.359,43.689 30.233,43.376 30.233,42.958C30.233,42.268 29.673,41.708 28.983,41.708C28.293,41.708 27.733,42.268 27.733,42.958C27.733,43.669 27.898,44.212 28.114,44.862C28.146,44.957 28.116,45.085 28.108,45.214C28.088,45.544 28.05,45.877 28.05,46.134C28.05,46.906 28.209,47.741 28.209,48.516C28.209,48.834 28.156,49.275 28.163,49.676C28.169,49.995 28.211,50.298 28.288,50.56Z" style="fill:white;"/>
        <path d="M43.257,50.088C43.204,49.92 43.139,49.712 43.111,49.63C42.923,49.065 42.858,48.33 42.858,47.722C42.858,45.536 42.382,43.384 42.382,41.211C42.382,40.521 41.821,39.961 41.132,39.961C40.442,39.961 39.882,40.521 39.882,41.211C39.882,43.384 40.358,45.536 40.358,47.722C40.358,48.583 40.473,49.621 40.74,50.42C40.798,50.596 40.926,51.044 41.008,51.252C41.116,51.523 41.256,51.69 41.327,51.762C41.842,52.285 42.375,52.201 42.756,52.024C42.914,51.951 43.493,51.705 43.493,50.819C43.493,50.546 43.406,50.293 43.257,50.088Z" style="fill:white;"/>
        <path d="M13.642,53.4C13.547,53.412 13.18,53.462 12.998,53.51C12.654,53.6 12.363,53.76 12.138,53.985C11.977,54.146 11.813,54.397 11.718,54.741C11.612,55.127 11.619,55.83 11.558,56.132C11.393,56.958 11.022,57.835 10.788,58.654C10.689,59.003 10.344,60.805 10.409,61.264C10.481,61.77 10.752,62.041 10.947,62.182C11.168,62.341 11.415,62.422 11.687,62.424C11.927,62.426 12.281,62.38 12.636,62.025C12.986,61.675 13.085,61.167 12.932,60.728C13.003,60.319 13.148,59.496 13.192,59.341C13.444,58.459 13.832,57.512 14.01,56.622C14.039,56.479 14.071,56.131 14.095,55.844C14.315,55.798 14.559,55.736 14.693,55.669C15.481,55.275 16.407,54.83 17.357,54.672C21.143,54.041 25.115,53.101 28.903,53.101C29.593,53.101 30.153,52.541 30.153,51.851C30.153,51.161 29.593,50.601 28.903,50.601C24.982,50.601 20.866,51.553 16.946,52.206C15.775,52.401 14.622,52.912 13.642,53.4ZM11.631,59.897C11.397,59.901 11.135,59.99 10.868,60.258C11.081,60.044 11.353,59.924 11.631,59.897Z" style="fill:white;"/>
        <path d="M53.303,48.245C53.095,48.23 52.686,48.21 52.501,48.256C51.997,48.382 51.45,48.388 50.931,48.474C49.223,48.759 47.418,48.7 45.73,49.037C44.584,49.267 43.291,49.728 42.243,49.728C41.553,49.728 40.993,50.288 40.993,50.978C40.993,51.668 41.553,52.228 42.243,52.228C43.435,52.228 44.916,51.75 46.22,51.489C47.882,51.156 49.66,51.221 51.342,50.94C51.878,50.851 52.439,50.827 52.965,50.714L53.112,50.731C53.172,50.737 53.232,50.742 53.292,50.748L53.373,50.753C53.384,50.853 53.395,50.936 53.405,50.985C53.643,52.174 53.699,53.412 53.78,54.634C53.851,55.7 54.254,56.897 54.254,57.886C54.254,58.576 54.814,59.136 55.504,59.136C56.194,59.136 56.754,58.576 56.754,57.886C56.754,56.847 56.349,55.587 56.275,54.468C56.186,53.137 56.115,51.79 55.856,50.494C55.805,50.238 55.808,49.551 55.695,49.165C55.599,48.834 55.438,48.588 55.276,48.426C55.063,48.213 54.74,48.033 54.3,48.023C54.024,48.016 53.592,48.141 53.303,48.245Z" style="fill:white;"/>
    </g>
</svg>
