<?xml version="1.0" encoding="UTF-8" standalone="no"?>
<!DOCTYPE svg PUBLIC "-//W3C//DTD SVG 1.1//EN" "http://www.w3.org/Graphics/SVG/1.1/DTD/svg11.dtd">
<svg width="100%" height="100%" viewBox="0 0 16 16" version="1.1" xmlns="http://www.w3.org/2000/svg" xmlns:xlink="http://www.w3.org/1999/xlink" xml:space="preserve" xmlns:serif="http://www.serif.com/" style="fill-rule:evenodd;clip-rule:evenodd;stroke-linecap:round;stroke-linejoin:round;stroke-miterlimit:1.5;">
    <g id="Background" transform="matrix(0.25,0,0,0.25,0,0)">
        <rect x="0" y="0" width="64" height="64" style="fill:rgb(21,21,21);stroke:rgb(21,21,21);stroke-width:4px;"/>
    </g>
    <g id="Taskington" transform="matrix(0.25,0,0,0.25,0,0)">
        <path d="M10.243,20.089C10.781,21.165 11.132,22.42 11.752,23.504C12.607,24.998 13.379,26.693 13.896,28.347C14.835,31.354 15.018,34.622 15.404,37.717C15.523,38.664 15.404,39.7 15.404,40.655C15.404,41.657 15.519,42.78 15.325,43.752C15.221,44.273 15.213,44.834 15.087,45.34C15.03,45.569 15.002,45.833 14.928,46.055C14.902,46.134 14.765,46.293 14.849,46.293C15.128,46.293 15.794,45.83 16.119,45.737C17.283,45.404 18.428,45.066 19.613,44.784C23.188,43.933 26.87,43.244 30.491,42.64C33.929,42.067 37.349,41.452 40.814,41.052C44.889,40.582 48.958,40.564 53.042,40.337C54.222,40.272 55.389,40.332 56.536,40.496C56.764,40.529 56.955,40.522 57.171,40.576C57.249,40.595 57.567,40.736 57.568,40.734C57.678,40.624 57.489,40.021 57.489,39.861C57.489,38.861 57.193,37.853 57.092,36.844C56.926,35.189 56.823,33.502 56.695,31.841C56.481,29.068 55.712,26.337 55.345,23.583C55.026,21.188 55.166,18.738 54.868,16.357C54.813,15.914 54.41,14.734 54.63,14.293C54.753,14.047 54.873,13.653 55.027,13.499C55.128,13.398 55.186,13.102 55.186,13.102L54.71,13.102C54.436,13.102 54.176,13.174 53.916,13.261C53.134,13.521 52.321,13.681 51.533,13.896C49.089,14.562 46.483,14.806 43.99,15.246C39.08,16.112 34.115,16.728 29.221,17.707C26.597,18.232 24.015,18.762 21.36,19.057C18.474,19.378 15.731,20.248 12.864,20.248C12.16,20.248 11.265,20.079 10.878,19.692C10.783,19.597 10.007,19.849 10.323,19.533" style="fill:none;stroke:white;stroke-width:3.33px;"/>
        <path d="M21.995,26.839C21.995,26.317 22.463,26.23 22.63,25.727C22.709,25.491 22.832,25.244 22.948,25.012C23.454,24 23.87,24.257 24.615,24.854C25.043,25.195 25.54,25.408 25.965,25.727C26.144,25.861 26.536,26.283 26.759,26.283" style="fill:none;stroke:white;stroke-width:3.33px;"/>
        <path d="M41.132,24.933C41.132,24.439 41.687,23.902 41.846,23.424C41.963,23.073 42.125,22.745 42.243,22.392C42.335,22.117 42.531,21.335 42.799,21.201C43.042,21.08 43.33,21.298 43.514,21.36C44.396,21.654 45.183,22.023 45.975,22.551C46.297,22.766 46.856,23.266 47.246,23.266" style="fill:none;stroke:white;stroke-width:3.33px;"/>
        <path d="M15.246,5.797C15.751,5.797 16.693,6.882 17.151,7.226C19.332,8.861 20.906,10.793 22.392,13.022C22.951,13.86 23.408,14.705 23.98,15.563C24.153,15.822 24.615,17.073 24.615,16.516" style="fill:none;stroke:white;stroke-width:3.33px;"/>
        <path d="M39.94,15.404C39.94,13.638 40.921,12.142 41.211,10.402C41.46,8.907 41.951,7.497 42.243,6.035C42.47,4.902 42.683,3.682 43.037,2.62C43.134,2.331 43.514,1.129 43.514,1.35" style="fill:none;stroke:white;stroke-width:3.33px;"/>
        <path d="M27.236,34.462C27.622,34.848 27.929,35.523 28.506,35.811C28.973,36.045 29.768,36.438 30.174,36.844C30.359,37.029 31.1,36.658 31.285,36.844C31.723,37.281 33.644,36.816 34.065,36.605C34.432,36.422 34.941,36.498 35.335,36.367C35.908,36.176 36.49,36.009 37.082,35.811C38.744,35.258 39.611,33.93 40.337,32.476C40.608,31.935 40.893,31.466 40.893,30.809" style="fill:none;stroke:white;stroke-width:3.33px;"/>
        <path d="M28.983,42.958C28.983,43.522 29.128,43.951 29.3,44.467C29.449,44.912 29.3,45.663 29.3,46.134C29.3,46.906 29.459,47.741 29.459,48.516C29.459,49.037 29.313,49.891 29.538,50.342C29.603,50.471 29.538,50.835 29.538,50.978C29.538,51.084 29.538,51.401 29.538,51.295L29.538,50.342" style="fill:none;stroke:white;stroke-width:3.33px;"/>
        <path d="M41.132,41.211C41.132,43.384 41.608,45.536 41.608,47.722C41.608,48.457 41.698,49.343 41.926,50.025C42.01,50.278 42.243,51.144 42.243,50.819" style="fill:none;stroke:white;stroke-width:3.33px;"/>
        <path d="M28.903,51.851C25.049,51.851 21.005,52.797 17.151,53.439C16.078,53.618 15.025,54.105 14.134,54.551C13.822,54.707 13.271,54.62 13.022,54.868C12.811,55.08 12.855,56.024 12.784,56.377C12.613,57.235 12.233,58.147 11.99,58.998C11.891,59.343 11.433,61.46 11.752,61.141" style="fill:none;stroke:white;stroke-width:3.33px;"/>
        <path d="M42.243,50.978C43.363,50.978 44.75,50.508 45.975,50.263C47.65,49.928 49.441,49.99 51.136,49.707C51.688,49.615 52.269,49.603 52.804,49.469C53.029,49.413 53.393,49.572 53.598,49.469C53.713,49.412 54.265,49.183 54.392,49.31C54.61,49.528 54.571,50.445 54.63,50.739C54.879,51.982 54.942,53.275 55.027,54.551C55.1,55.644 55.504,56.872 55.504,57.886" style="fill:none;stroke:white;stroke-width:3.63px;"/>
    </g>
</svg>
