<?xml version="1.0" encoding="UTF-8" standalone="no"?>
<!DOCTYPE svg PUBLIC "-//W3C//DTD SVG 1.1//EN" "http://www.w3.org/Graphics/SVG/1.1/DTD/svg11.dtd">
<svg width="100%" height="100%" viewBox="0 0 1042 437" version="1.1" xmlns="http://www.w3.org/2000/svg" xmlns:xlink="http://www.w3.org/1999/xlink" xml:space="preserve" xmlns:serif="http://www.serif.com/" style="fill-rule:evenodd;clip-rule:evenodd;stroke-linejoin:round;stroke-miterlimit:2;">
    <rect x="0" y="0" width="1041.61" height="436.93" style="fill:rgb(21,21,21);"/>
    <g>
        <g transform="matrix(1,0,0,1,-456.669,-150.724)">
            <path d="M595.547,201.687C592.192,268.8 585.818,335.76 585.818,402.894C585.818,405.994 588.335,408.511 591.435,408.511C594.535,408.511 597.052,405.994 597.052,402.894C597.052,335.947 603.421,269.174 606.768,202.248C606.922,199.152 604.534,196.512 601.438,196.357C598.342,196.203 595.702,198.591 595.547,201.687Z" style="fill:white;"/>
        </g>
        <g transform="matrix(1,0,0,1,-456.669,-150.724)">
            <path d="M470.568,220.819C472.153,219.728 475.438,217.54 478.76,215.773C497.327,205.891 533.247,191.288 543.762,187.577C589.23,171.529 639.48,167.726 687.304,165.449C695.307,165.068 703.856,163.98 711.489,164.453C717.02,164.797 722.053,165.869 725.53,169.508C727.82,171.905 729.341,175.367 730.1,180.161C730.585,183.223 733.465,185.315 736.527,184.83C739.589,184.345 741.681,181.466 741.196,178.404C739.999,170.842 737.265,165.528 733.652,161.746C728.273,156.116 720.743,153.772 712.184,153.241C704.164,152.743 695.179,153.827 686.77,154.227C637.871,156.556 586.513,160.575 540.023,176.983C527.664,181.345 481.197,200.386 466.226,210.04C463.078,212.07 461.071,213.979 460.222,215.306C458.936,217.316 458.87,219.176 459.24,220.664C459.583,222.044 460.343,223.338 461.787,224.367C464.312,226.165 467.823,225.576 469.621,223.051C470.112,222.362 470.425,221.6 470.568,220.819Z" style="fill:white;"/>
        </g>
        <g transform="matrix(1,0,0,1,-456.669,-150.724)">
            <path d="M851.708,302.093C852.287,304.576 854.517,306.427 857.176,306.427C860.276,306.427 862.793,303.91 862.793,300.81C862.793,297.5 861.207,294.653 857.894,292.624C853.932,290.198 846.074,289.101 837.388,289.929C827.025,290.917 815.531,294.417 809.023,299.608C802.998,304.413 800.573,310.538 803.349,317.48C805.145,321.967 809.995,327.983 816.423,334.677C825.06,343.67 836.588,354.249 845.644,364.531C850.346,369.868 854.373,375.092 856.795,379.952C858.553,383.478 859.612,386.653 858.472,389.392C858.214,390.01 857.583,390.43 856.868,390.877C855.461,391.755 853.651,392.427 851.592,392.959C844.274,394.852 834.141,394.827 825.158,392.873C820.165,391.787 815.522,390.116 812.025,387.722C809.417,385.936 807.446,383.797 807.073,381.001C806.723,378.379 807.733,375.417 810.014,371.958C811.72,369.37 811.004,365.883 808.416,364.176C805.828,362.47 802.341,363.185 800.635,365.774C794.944,374.405 794.751,381.701 797.386,387.56C800.966,395.52 810.932,401.276 822.77,403.851C835.436,406.606 849.988,405.942 858.827,402.403C863.943,400.354 867.374,397.238 868.843,393.71C870.289,390.236 870.506,386.386 869.557,382.246C868.418,377.271 865.475,371.736 861.299,366.014C852.616,354.116 838.461,341.037 827.466,329.909C820.932,323.296 815.491,317.584 813.78,313.307C813.278,312.051 813.624,310.941 814.404,309.968C815.393,308.734 816.851,307.675 818.556,306.707C823.916,303.664 831.527,301.773 838.454,301.113C840.314,300.935 842.126,300.849 843.834,300.861C846.043,300.877 848.068,301.049 849.764,301.424C850.411,301.567 851.224,301.887 851.708,302.093Z" style="fill:white;"/>
        </g>
        <g transform="matrix(1,0,0,1,-456.669,-150.724)">
            <path d="M897.157,370.154C896.127,368.906 894.568,368.11 892.824,368.11C889.724,368.11 887.207,370.627 887.207,373.727C887.207,375.278 886.235,385.46 886.333,392.795C886.389,397.046 886.992,400.55 887.8,402.165C887.828,402.221 895.281,407.578 898.177,401.488C899.333,399.058 903.689,389.664 906.201,382.895C907.566,379.214 908.321,376.097 908.321,374.596C908.321,366.924 908.783,367.497 909.74,359.84C913.555,329.32 913.025,299.119 913.025,268.403C913.025,268.123 913.727,243.908 914.124,230.254C914.459,229.536 914.645,228.736 914.645,227.894C914.645,222.235 914.525,219.595 914.445,219.143C914.051,216.927 912.836,216.026 912.415,215.687C910.765,214.36 909.045,214.184 907.369,214.655C906.769,214.824 903.98,215.526 903.33,219.167C902.906,221.538 901.79,267.997 901.79,268.403C901.79,298.65 902.35,328.392 898.593,358.447C897.777,364.971 897.318,366.037 897.157,370.154Z" style="fill:white;"/>
        </g>
        <g transform="matrix(1,0,0,1,-456.669,-150.724)">
            <path d="M943.324,314.803C925.03,319.339 916.057,327.251 912.927,335.76C910.87,341.352 911.148,347.439 913.426,353.659C916.37,361.7 922.814,370.085 931.171,377.635C946.882,391.83 969.29,403.089 985.47,404.468C993.922,405.189 1000.88,403.241 1005.36,398.764C1007.55,396.571 1007.55,393.012 1005.36,390.82C1003.17,388.628 999.609,388.628 997.417,390.82C995.951,392.286 993.859,392.968 991.436,393.249C988.189,393.625 984.425,393.225 980.373,392.285C966.915,389.162 950.665,380.107 938.703,369.299C932.927,364.082 928.148,358.465 925.318,352.866C922.992,348.265 921.961,343.744 923.471,339.638C925.719,333.528 932.892,328.964 946.028,325.707C949.037,324.96 950.874,321.912 950.128,318.903C949.382,315.893 946.333,314.056 943.324,314.803Z" style="fill:white;"/>
        </g>
        <g transform="matrix(1,0,0,1,-456.669,-150.724)">
            <path d="M1006.29,406.381C1004.83,407.395 1003.87,409.084 1003.87,410.995C1003.87,414.096 1006.39,416.613 1009.49,416.613C1011.71,416.613 1015.12,414.974 1016.91,410.165C1019.58,403.016 1021.1,384.951 1021.49,382.864C1024.54,366.642 1026.9,350.435 1029.62,334.141C1030.12,331.083 1028.06,328.187 1025,327.677C1021.94,327.167 1019.04,329.236 1018.53,332.294C1015.83,348.513 1013.48,364.646 1010.45,380.794C1010.15,382.374 1009.25,393.494 1007.62,401.506C1007.26,403.304 1006.6,405.428 1006.29,406.381Z" style="fill:white;"/>
        </g>
        <g transform="matrix(1,0,0,1,-456.669,-150.724)">
            <path d="M1026.08,274.499C1025.81,273.781 1025.38,273.11 1024.81,272.533C1022.61,270.341 1019.05,270.341 1016.86,272.533C1012.78,276.611 1013.73,280.008 1014.62,281.638C1015.3,282.875 1016.47,284.079 1018.45,284.75C1019.64,285.152 1021.64,285.363 1024.07,285.363C1027.17,285.363 1029.69,282.846 1029.69,279.745C1029.69,277.352 1028.19,275.306 1026.08,274.499Z" style="fill:white;"/>
        </g>
        <g transform="matrix(1,0,0,1,-456.669,-150.724)">
            <path d="M1102.14,364.194C1102.57,365.206 1102.89,366.344 1103.22,367.52C1104.44,372.012 1105.07,377.22 1106.34,381.934C1108,388.048 1110.77,393.362 1115.78,396.63C1120.56,399.743 1127.67,401.226 1138.77,398.642C1146.02,396.954 1151.97,392.001 1157.7,386.832C1162.01,382.95 1166.1,378.849 1171.27,377.556C1175.49,376.5 1178.62,379.069 1181.98,381.391C1184.65,383.245 1187.38,385.122 1190.3,386.579C1189.77,390.87 1189.43,395.52 1189.25,400.432C1188.57,419.454 1190.3,442.567 1192.62,463.567C1184.52,467.047 1176.02,471.073 1168.68,475.815C1156.29,483.814 1147.28,493.963 1146.48,506.232C1146.19,510.596 1147.84,517.473 1151.17,525.389C1158.21,542.159 1172.57,564.291 1186.37,576.078C1196.82,585.007 1207.38,587.749 1215.15,582.567C1216.26,581.83 1217.35,580.64 1218.07,578.798C1218.75,577.087 1219.18,574.271 1219.17,570.662C1219.12,555.094 1211.89,520.402 1211.1,515.443C1209.78,507.058 1207.08,490.197 1204.72,470.604C1211.84,467.696 1218.24,465.215 1222.65,463.01C1225.42,461.624 1226.55,458.247 1225.16,455.474C1223.78,452.701 1220.4,451.576 1217.63,452.962C1213.98,454.784 1209.02,456.8 1203.41,459.084C1201.33,439.492 1199.85,418.39 1200.48,400.837C1200.63,396.76 1200.88,392.882 1201.28,389.274C1206.54,389.085 1210.17,385.382 1211.71,379.746C1213.34,373.786 1212.34,365.689 1210.74,362.402C1209.46,359.746 1207.48,358.617 1205.96,358.26C1204.05,357.81 1201.94,358.052 1199.96,360.033C1197.07,362.924 1194.7,367.289 1193,372.91C1192.8,373.566 1192.62,374.24 1192.43,374.933C1190,373.38 1187.69,371.604 1185.33,370.129C1180.24,366.956 1174.92,365.064 1168.55,366.657C1161.67,368.376 1155.9,373.33 1150.18,378.491C1145.88,382.364 1141.66,386.436 1136.23,387.7C1129.57,389.251 1125.17,389.151 1122.19,387.386C1120.34,386.293 1119.24,384.55 1118.4,382.589C1117.23,379.858 1116.59,376.712 1115.98,373.571C1114.96,368.353 1114.02,363.147 1112.08,359.089C1110.34,355.473 1107.88,352.635 1104.36,350.879C1103.12,350.259 1100.93,349.6 1098.35,351.373C1097.72,351.801 1096.58,352.882 1095.21,354.561C1093.16,357.075 1089.98,361.379 1086.48,365.628C1084.15,368.453 1081.67,371.261 1079.31,373.408C1078.62,374.036 1077.71,374.682 1076.94,375.189C1076.82,374.607 1076.71,373.944 1076.67,373.298C1076.15,366.551 1075.06,361.359 1075.06,354.282C1075.06,351.182 1072.55,348.665 1069.44,348.665C1066.34,348.665 1063.83,351.182 1063.83,354.282C1063.83,361.676 1064.92,367.106 1065.46,374.155C1066.15,383.12 1070.12,386.349 1073.6,387.144C1076.83,387.88 1081.37,386.436 1085.89,382.583C1091.11,378.123 1098.22,369.264 1102.14,364.194ZM1193.98,475.157C1187.37,478.102 1180.68,481.434 1174.77,485.252C1165.69,491.12 1158.28,497.961 1157.69,506.962C1157.48,510.19 1159.06,515.182 1161.52,521.037C1167.98,536.398 1181.03,556.74 1193.67,567.536C1197.05,570.425 1200.34,572.613 1203.47,573.582C1204.96,574.044 1206.38,574.209 1207.67,573.813C1207.77,572.094 1207.92,568.116 1207.63,564.612C1206.23,547.883 1200.68,521.431 1200.01,517.196C1198.74,509.179 1196.26,493.554 1193.98,475.157Z" style="fill:white;"/>
        </g>
        <g transform="matrix(1,0,0,1,-456.669,-150.724)">
            <path d="M1275.38,443.576C1273.43,444.861 1272.42,447.289 1273.04,449.674C1274.17,454.047 1275.12,456.51 1275.7,457.503C1276.51,458.892 1277.44,459.564 1278.09,459.929C1280.03,461.033 1281.83,460.905 1283.46,460.124C1284.45,459.649 1286.25,458.463 1286.82,455.503C1287.12,453.954 1287.13,450.059 1286.78,444.816C1285.56,426.55 1280.84,389.488 1280.8,389.204C1278.31,370.081 1276.87,337.14 1271.31,308.142C1267.42,287.809 1261.37,269.403 1251.97,258.294C1249.97,255.927 1246.42,255.63 1244.06,257.632C1241.69,259.634 1241.39,263.182 1243.4,265.549C1251.79,275.478 1256.8,292.084 1260.28,310.257C1265.8,339.017 1267.19,371.691 1269.66,390.657C1269.69,390.903 1273.27,418.995 1274.98,438.115C1275.14,439.957 1275.27,441.817 1275.38,443.576Z" style="fill:white;"/>
        </g>
        <g transform="matrix(1,0,0,1,-456.669,-150.724)">
            <path d="M1316.86,387.057C1294.14,382.922 1253.1,378.09 1251.74,377.891C1248.67,377.442 1245.82,379.569 1245.37,382.636C1244.92,385.704 1247.05,388.559 1250.11,389.007C1251.57,389.221 1299.01,394.782 1319.74,399.049C1322.53,399.622 1325.52,400.485 1326.64,400.82C1327.87,402.634 1328.39,405.223 1329,407.875C1330,412.256 1330.89,416.869 1332.54,420.506C1334.07,423.902 1336.24,426.569 1339.19,428.211C1342.09,429.825 1345.87,430.569 1350.98,429.444C1356.25,428.283 1361.45,423.873 1365.59,416.883C1370.71,408.238 1374.51,395.502 1375.81,382.52C1377.14,369.321 1375.85,355.912 1371.19,346.207C1367.63,338.775 1362.15,333.371 1354.65,331.085C1334.21,324.86 1316.34,341.439 1311.12,359.025C1307.92,369.818 1309.54,380.577 1316.86,387.057ZM1327.51,389.321C1328.96,389.704 1330.14,390.073 1331.01,390.415C1332.84,391.137 1333.95,392.04 1334.52,392.681C1336.44,394.841 1337.83,397.763 1338.84,401.1C1339.98,404.849 1340.65,409.209 1341.76,413.036C1342.41,415.282 1342.94,417.443 1344.65,418.392C1345.61,418.925 1346.88,418.844 1348.56,418.473C1351.4,417.848 1353.7,414.924 1355.93,411.159C1360.36,403.681 1363.51,392.626 1364.64,381.397C1365.57,372.119 1365.12,362.703 1362.65,355.085C1360.59,348.703 1357.15,343.591 1351.37,341.832C1337.21,337.518 1325.51,350.032 1321.9,362.219C1319.77,369.383 1320.21,376.866 1326.42,380.08C1329.18,381.504 1330.26,384.896 1328.83,387.65C1328.49,388.306 1328.04,388.867 1327.51,389.321Z" style="fill:white;"/>
        </g>
        <g transform="matrix(1,0,0,1,-456.669,-150.724)">
            <path d="M722.952,327.437C723.268,328.16 723.544,329.02 723.834,329.969C725.076,334.027 725.894,339.452 726.556,345.385C728.367,361.628 729.033,381.366 731.94,390.086C732.92,393.028 736.104,394.619 739.045,393.639C741.986,392.659 743.578,389.475 742.597,386.534C739.353,376.802 739.288,352.693 736.685,336.321C735.307,327.66 732.911,320.916 729.898,317.903C727.746,315.751 724.131,314.376 719.376,314.208C717.227,311.104 713.974,308.387 709.996,306.292C703.26,302.746 694.483,300.938 687.127,301.397C685.942,299.182 683.362,297.964 680.814,298.601C657.238,304.495 638.639,330.14 635.029,351.299C632.261,367.521 637.838,380.958 653.528,384.096C660.362,385.463 668.619,384.301 677.048,381.067C688.827,376.547 701.016,368.019 709.795,357.878C717.91,348.504 722.992,337.755 722.952,327.437ZM669.352,316.327C657.079,325.263 648.301,340.305 646.103,353.188C644.479,362.709 646.523,371.238 655.731,373.08C660.766,374.087 666.813,372.961 673.023,370.578C683.2,366.673 693.717,359.286 701.301,350.526C707.932,342.865 712.507,334.177 711.681,325.907C703.674,326.89 694.198,328.996 686.979,329.413C682.538,329.669 678.774,329.244 676.16,328.12C673.225,326.859 671.292,324.812 670.366,322.031C669.676,319.963 669.364,318.064 669.352,316.327ZM703.792,315.748C698.474,313.212 691.724,312.038 686.373,312.75C683.934,313.074 681.711,313.512 680.827,315.144C680.438,315.862 680.516,316.751 680.824,317.829C681.406,317.961 682.665,318.221 683.613,318.249C686.023,318.32 688.882,318.034 691.944,317.615C695.741,317.095 699.809,316.385 703.792,315.748Z" style="fill:white;"/>
        </g>
        <g transform="matrix(1,0,0,1,-456.669,-150.724)">
            <path d="M1411.79,399.375C1411.81,397.473 1411.88,395.586 1412.07,393.73C1413.1,383.413 1412.87,384.185 1413.7,374.193C1414.46,365.039 1415.4,356.623 1418.29,347.957C1419.27,345.016 1417.68,341.832 1414.74,340.852C1411.8,339.871 1408.61,341.463 1407.63,344.404C1404.45,353.941 1403.34,363.188 1402.5,373.26C1401.68,383.157 1401.91,382.393 1400.89,392.612C1400.19,399.663 1400.86,407.133 1400.86,414.236C1400.86,419.158 1403.16,421.146 1404.41,421.841C1406.04,422.741 1407.96,423.007 1410.14,421.985C1411.31,421.44 1413.12,419.894 1414.85,417.278C1418.66,411.514 1424.26,398.765 1425.88,396.061C1431.09,387.374 1440.55,374.49 1451.81,367.479C1458.25,363.472 1465.3,361.393 1472.39,364.332C1475.53,365.636 1477.59,368.789 1479.27,372.769C1481.42,377.876 1482.73,384.318 1483.54,391.291C1486.13,413.714 1483.5,441.352 1483.5,451.505C1483.5,454.605 1486.02,457.122 1489.12,457.122C1492.22,457.122 1494.74,454.605 1494.74,451.505C1494.74,439.325 1498.26,402.674 1492.81,378.616C1490.03,366.352 1484.62,357.245 1476.69,353.955C1466.1,349.566 1455.48,351.961 1445.87,357.942C1433.08,365.91 1422.17,380.409 1416.25,390.281C1415.47,391.579 1413.76,395.291 1411.79,399.375Z" style="fill:white;"/>
        </g>
    </g>
</svg>
