<?xml version="1.0" encoding="UTF-8" standalone="no"?>
<!DOCTYPE svg PUBLIC "-//W3C//DTD SVG 1.1//EN" "http://www.w3.org/Graphics/SVG/1.1/DTD/svg11.dtd">
<svg width="100%" height="100%" viewBox="0 0 1701 426" version="1.1" xmlns="http://www.w3.org/2000/svg" xmlns:xlink="http://www.w3.org/1999/xlink" xml:space="preserve" xmlns:serif="http://www.serif.com/" style="fill-rule:evenodd;clip-rule:evenodd;stroke-linejoin:round;stroke-miterlimit:2;">
    <g id="Ebene-1" serif:id="Ebene 1" transform="matrix(1,0,0,1,0,-416.693)">
        <g id="g4550">
            <path id="path3882" d="M140.803,515.341C139.583,531.003 137.448,546.592 135.354,562.16C131.935,588.72 127.556,615.137 123.436,641.593C121.879,651.332 120.271,661.075 117.695,670.607C116.528,674.927 115.443,678.75 112.761,682.305C106.394,682.657 108.583,684.024 105.644,679.254C104.021,674.749 110.393,672.455 112.015,676.96C109.89,676.409 111.381,676.61 107.605,677.914C109.415,676.607 110.743,670.373 111.12,668.985C113.654,659.646 115.214,650.094 116.745,640.551C120.858,614.142 125.229,587.771 128.642,561.257C130.697,545.987 132.771,530.698 134.031,515.341C134.031,510.553 140.803,510.553 140.803,515.341Z" style="fill:white;fill-rule:nonzero;"/>
            <path id="path3884" d="M59.835,598.367C64.316,580.96 75.62,566.568 86.865,552.986C100.27,538.904 115.918,525.201 135.392,520.653C138.612,519.902 141.942,519.744 145.217,519.29C148.283,519.5 151.391,519.379 154.416,519.92C165.309,521.868 174.244,528.957 179.122,538.815C180.227,541.05 180.857,543.491 181.725,545.829C182.056,548.204 182.691,550.556 182.719,552.954C182.833,562.691 177.98,572.214 170.982,578.774C169.371,580.284 167.494,581.484 165.751,582.838C160.339,586.498 154.595,588.793 148.113,589.273C143.331,589.53 142.967,582.768 147.749,582.511C152.858,582.404 157.352,580.12 161.639,577.458C163.087,576.373 164.639,575.414 165.984,574.204C171.602,569.153 175.881,561.515 176.002,553.816C176.032,551.906 175.57,550.021 175.353,548.124C174.687,546.205 174.217,544.206 173.355,542.366C167.967,530.862 158.393,526.325 146.112,526.002C143.228,526.369 140.297,526.467 137.46,527.102C119.215,531.181 104.638,544.242 92.079,557.308C81.621,569.903 71.099,583.178 66.555,599.207C65.961,603.959 59.241,603.119 59.835,598.367Z" style="fill:white;fill-rule:nonzero;"/>
            <path id="path3904" d="M189.546,644.331C196.957,639.253 204.267,634.12 210.816,627.95C215.246,623.534 220.396,618.459 220.319,611.768C217.958,607.762 212.294,607.78 208.261,608.31C198.014,611.598 194.458,620.062 191.598,629.613C189.543,640.268 187.16,652.036 190.938,662.636C191.52,664.269 192.478,665.743 193.248,667.297C194.294,668.483 195.142,669.88 196.386,670.857C205.217,677.793 218.522,670.176 226.722,666.362C243.976,656.141 259.778,643.668 275.868,631.738C281.62,628.107 292.117,617.006 299.24,624.49C300.371,625.679 300.762,627.398 301.523,628.851C304.106,640.203 303.606,652.016 303.579,663.591C303.504,664.845 304.314,677.334 301.362,677.29C295.73,677.206 295.795,674.989 294.519,671.454C290.565,660.452 289.072,648.902 289.281,637.269C290.72,626.268 296.528,617.266 306.309,611.857C308.229,610.795 310.31,610.057 312.31,609.158C318.375,606.69 324.717,605.958 331.163,605.386C335.934,604.979 336.509,611.727 331.738,612.133C326.036,612.596 320.425,613.22 315.046,615.352C304.072,620.09 298.18,625.167 296.052,637.406C295.805,648.225 297.248,658.968 300.906,669.202C302.551,674.015 302.053,669.998 297.423,671.781C296.755,672.038 297.039,673.281 296.459,673.7C296.07,673.981 296.698,672.764 296.727,672.284C296.907,669.387 296.599,666.471 296.807,663.575C296.832,652.901 297.188,642.08 295.305,631.534C295.175,630.923 294.958,630.325 294.916,629.703C294.896,629.406 295.337,629.039 295.122,628.835C292.994,626.824 281.604,636.157 279.901,637.178C263.441,649.382 247.286,662.167 229.563,672.509C217.955,677.841 202.711,685.191 191.204,675.217C189.579,673.809 188.492,671.881 187.136,670.213C186.206,668.204 185.058,666.282 184.346,664.185C180.34,652.39 182.711,639.452 185.122,627.632C189.16,614.664 193.696,605.594 207.579,601.572C209.169,601.443 210.755,601.138 212.35,601.185C217.426,601.336 223.623,603.642 226.075,608.435C226.642,609.541 226.749,610.827 227.086,612.023C226.517,620.878 221.729,626.94 215.451,632.887C208.496,639.396 200.793,644.89 192.906,650.211C188.748,652.587 185.388,646.707 189.546,644.331L189.546,644.331Z" style="fill:white;fill-rule:nonzero;"/>
            <path id="path3906" d="M381.727,613.606C376.15,614.61 370.078,616.282 367.439,621.735C367.615,628.172 373.924,632.688 378.334,636.598C383.39,641.37 389.324,646.403 391.048,653.488C391.345,654.708 391.349,655.98 391.5,657.226C390.039,668.086 380.825,670.665 371.649,673.341C365.878,674.815 359.962,675.514 354.055,676.16C349.295,676.68 348.559,669.948 353.319,669.428C358.84,668.826 364.37,668.188 369.769,666.835C375.204,665.281 382.724,663.923 384.758,657.864C384.413,650.824 378.686,646.14 373.836,641.66C368.397,636.819 360.793,630.811 360.759,622.727C360.754,621.249 361.296,619.82 361.564,618.367C362.276,617.223 362.843,615.975 363.699,614.935C367.888,609.849 374.726,608.048 380.887,606.887C385.638,606.293 386.478,613.012 381.727,613.606Z" style="fill:white;fill-rule:nonzero;"/>
            <path id="path3908" d="M438.151,624.428C434.157,642.366 430.798,660.443 427.281,678.48C422.38,705.043 417.467,731.601 412.504,758.152C411.389,763.587 410.047,770.219 408.85,775.718C408.547,777.11 407.357,783.499 406.136,785.284C405.454,786.282 404.566,787.844 403.376,787.636C401.143,787.245 399.626,785.089 397.751,783.816C393.617,766.09 392.132,747.876 390.881,729.759C390.223,711.431 390.122,692.856 393.804,674.792C396.317,662.463 397.868,659.684 402.235,647.937C411.462,627.705 424.906,609.222 443.429,596.542C446.304,594.574 449.418,592.982 452.413,591.202C461.252,587.154 472.346,582.722 481.57,588.566C486.379,591.612 486.547,593.742 488.939,598.658C489.268,600.907 489.866,603.132 489.926,605.404C490.169,614.661 486.448,624.29 481.014,631.663C479.768,633.354 478.253,634.829 476.873,636.412C468.426,644.047 459.525,646.94 448.333,645.185C443.612,644.383 444.745,637.707 449.466,638.508C457.821,640.078 465.449,637.599 471.8,631.926C479.566,623.288 484.386,613.294 482.753,601.414C482.259,600.126 481.972,598.738 481.271,597.549C475.848,588.343 462.997,593.806 455.859,597.032C453.092,598.658 450.214,600.108 447.558,601.91C430.033,613.798 417.344,631.257 408.58,650.306C404.422,661.397 402.896,664.157 400.499,675.807C396.885,693.379 397.012,711.46 397.637,729.293C398.826,746.566 400.4,763.819 403.824,780.818C402.695,781.056 401.467,781.011 400.439,781.534C400.004,781.755 399.661,783.321 399.814,782.857C400.127,781.907 400.65,781.031 400.922,780.068C403.064,772.478 403.939,764.549 405.847,756.907C410.814,730.34 415.729,703.764 420.634,677.184C424.162,659.089 427.533,640.955 431.54,622.959C432.579,618.284 439.19,619.753 438.151,624.428Z" style="fill:white;fill-rule:nonzero;"/>
            <path id="path3914" d="M511.821,623.844C518.714,617.669 525.457,611.318 531.848,604.62C530.217,605.804 537.471,598.827 535.337,599.165C533.287,599.491 536.852,600.441 534.345,601.289C526.84,603.087 522.664,609.97 518.954,616.153C515.939,622.356 513.149,629.138 512.801,636.136C512.63,639.56 513.187,641.07 513.912,644.331C517.178,652.437 524.758,653.912 532.678,654.242C537.977,654.44 543.14,653.503 548.296,652.448C552.99,651.5 554.33,658.138 549.637,659.086C543.921,660.227 538.199,661.247 532.332,661.005C520.203,660.291 512.054,657.794 507.285,645.724C506.948,644.049 506.465,642.397 506.275,640.699C505.181,630.903 508.892,621.25 513.16,612.647C518.162,604.435 523.99,596.116 534.179,594.519C535.418,594.588 536.731,594.294 537.894,594.724C545.75,597.628 540.389,605.584 536.747,609.295C530.198,616.155 523.292,622.663 516.229,628.986C512.593,632.102 508.186,626.961 511.821,623.844L511.821,623.844Z" style="fill:white;fill-rule:nonzero;"/>
            <path id="path3916" d="M618.327,596.833C607.286,598.135 597.914,604.194 589.416,610.953C584.831,615.504 576.069,624.516 577.391,631.777C577.537,632.58 578.038,633.274 578.362,634.023C585.696,640.305 599.02,633.449 606.396,630.372C625.958,620.697 641.627,606.575 655.967,590.377C667.514,577.201 673.622,561.683 678.61,545.204C680.421,541.777 679.846,537.105 681.806,533.724C682.274,532.915 682.751,531.372 683.654,531.614C690.223,533.376 689.123,535.614 689.331,540.32C689.87,560.242 687.002,580.039 684.717,599.777C682.395,617.581 680.578,635.442 677.649,653.16C676.763,656.8 675.71,661.41 670.515,660.591C666.568,659.969 664.74,654.502 663.438,651.516C662.071,646.388 659.398,640.38 660.768,634.946C661.073,633.738 661.745,632.653 662.234,631.507C663.075,630.533 663.776,629.419 664.756,628.586C671.546,622.827 683.227,621.906 691.636,620.861C702.445,619.875 714.529,618.993 724.259,624.924C726.076,626.032 727.605,627.555 729.279,628.871C737.516,638.024 740.595,649.812 742.59,661.646C742.76,662.86 742.929,664.074 743.098,665.288C743.758,670.031 737.051,670.964 736.391,666.221C736.231,665.069 736.071,663.917 735.911,662.764C734.214,652.564 731.731,642.29 725.004,634.123C723.813,633.108 722.747,631.922 721.429,631.076C712.908,625.608 701.981,626.794 692.466,627.582C684.437,628.567 674.771,629.066 668.311,634.496C665.522,638.584 668.668,644.579 669.667,648.859C670.285,650.353 671.297,651.702 671.672,653.275C671.747,653.591 666.713,658.507 670.968,652.055C673.882,634.446 675.677,616.692 677.99,598.998C680.235,579.605 683.07,560.156 682.564,540.582C682.347,533.821 681.232,538.325 687.34,537.295C687.919,537.197 688.011,535.256 688.255,535.79C688.479,536.282 684.838,546.7 685.091,547.167C679.767,564.738 673.313,580.785 661.034,594.87C658.484,597.741 656.037,600.706 653.385,603.483C640.576,616.892 625.535,628.25 608.991,636.627C599.348,640.606 584.959,647.729 575.133,640.064C573.799,639.023 572.995,637.44 571.925,636.128C571.493,634.565 570.769,633.054 570.627,631.438C569.748,621.401 578.726,612.047 585.214,605.641C594.948,597.981 605.687,591.238 618.327,590.061C623.116,590.061 623.116,596.833 618.327,596.833Z" style="fill:white;fill-rule:nonzero;"/>
            <path id="path3918" d="M764.423,626.021C769.112,636.565 774.639,646.774 780.917,656.456C780.934,656.894 786.085,663.316 787.277,662.049C787.521,661.79 786.762,661.473 786.756,661.117C786.748,660.489 787.075,659.902 787.236,659.295C787.592,657.953 787.95,656.612 788.306,655.271C790.924,639.938 790.868,624.317 790.324,608.823C790.286,602.043 788.525,594.228 791.953,587.888C792.514,586.849 793.401,586.022 794.125,585.088C797.272,581.479 802.376,585.929 799.23,589.538C794.626,593.349 797.332,603.61 797.092,608.586C797.657,624.792 797.715,641.149 794.809,657.162C793.812,660.388 793.067,664.815 790.012,667.054C783.775,671.628 778.392,664.485 775.232,660.135C768.707,650.035 762.918,639.412 758.082,628.399C756.4,623.915 762.741,621.537 764.423,626.021Z" style="fill:white;fill-rule:nonzero;"/>
            <path id="path3920" d="M830.505,638.398C838.587,630.166 859.299,624.735 863.718,613.92C866.035,606.309 864.492,605.832 857.784,605.044C846.114,606.728 839.588,614.846 834.296,625.144C829.965,635.394 829.127,643.775 834.812,653.444C839.384,659.905 855.685,652.361 862.808,649.364C865.418,648.338 868.278,654.145 865.283,656.679L854.123,661.423C844.209,664.064 834.501,666.607 828.166,657.537C827.267,655.883 826.207,654.315 825.471,652.575C821.09,642.223 823.262,631.181 827.539,621.255C835.106,607.087 842.794,598.515 858.973,597.067C860.738,597.406 862.566,597.484 864.266,598.083C872.746,601.072 873.595,609.38 870.799,617.114C865.875,629.008 842.144,635.629 833.174,644.642C829.07,648.402 826.402,642.157 830.505,638.398Z" style="fill:white;fill-rule:nonzero;"/>
            <path id="path3922" d="M929.84,595.704C921.143,597.558 914.312,602.7 908.936,609.561C904.774,617.054 909.459,621.5 914.325,627.085C921.14,633.245 926.894,638.675 930.575,647.214C934.537,658.799 928.56,665.822 920.232,673.109C914.535,676.689 907.268,682.449 899.937,680.834C898.921,680.61 898.011,680.046 897.048,679.653C892.763,677.515 895.785,671.455 900.071,673.592C903.113,676.766 913.25,669.606 915.798,667.991C921.767,662.883 927.107,658.262 924.33,649.835C921.253,642.23 915.065,637.049 909.206,631.518C901.981,623.128 897.203,616.051 903.635,605.347C910.544,596.76 918.744,590.779 929.84,588.932C934.628,588.932 934.628,595.704 929.84,595.704Z" style="fill:white;fill-rule:nonzero;"/>
            <path id="path3924" d="M719.533,590.718C722.136,587.441 720.783,589.008 723.586,586.011C726.869,582.526 731.798,587.17 728.514,590.655C726.154,593.136 727.318,591.809 725.044,594.654C722.261,598.55 716.75,594.614 719.533,590.718Z" style="fill:white;fill-rule:nonzero;"/>
            <path id="path3926" d="M1085.05,540.646C1081.41,557.875 1077.01,574.941 1072.33,591.913C1066.38,613.132 1058.45,633.731 1049.51,653.851C1045.82,662.903 1040.25,670.971 1036.07,679.77C1034.02,684.095 1027.9,681.19 1029.95,676.864C1034.11,668.116 1039.62,660.084 1043.32,651.101C1052.13,631.291 1059.94,611.003 1065.8,590.11C1070.4,573.453 1074.69,556.701 1078.34,539.806C1078.93,535.054 1085.65,535.894 1085.05,540.646Z" style="fill:white;fill-rule:nonzero;"/>
            <path id="path3928" d="M999.862,548.806C1002.87,535.675 1012.52,525.838 1023.77,518.982C1027.02,517.002 1030.53,515.48 1033.91,513.729C1051.87,506.414 1071.65,502.409 1090.72,507.926C1093.89,508.842 1096.86,510.325 1099.93,511.524C1110.31,517.089 1118.95,525.513 1119.97,537.915C1120.57,545.244 1118.93,548.01 1116.73,554.796C1107.31,573.137 1093.27,581.137 1074.59,587.987C1064.59,590.744 1069.45,589.663 1060.05,591.341C1055.33,592.173 1054.15,585.504 1058.87,584.672C1067.48,583.175 1063,584.151 1072.27,581.624C1088.24,575.845 1102.18,568.29 1110.31,552.632C1112.12,547.501 1113.6,544.927 1113.36,539.376C1112.91,529.204 1105.81,522.433 1097.43,517.819C1094.74,516.733 1092.14,515.392 1089.36,514.56C1071.82,509.317 1053.57,513.116 1037.01,519.751C1033.91,521.333 1030.69,522.707 1027.7,524.497C1018.09,530.261 1009.47,538.425 1006.59,549.554C1006.06,554.313 999.334,553.565 999.862,548.806Z" style="fill:white;fill-rule:nonzero;"/>
            <path id="path3930" d="M1135.9,618.621C1130.56,630.339 1125.54,642.206 1120.64,654.114C1120.01,655.796 1119.37,657.478 1118.73,659.161C1117.03,663.638 1110.7,661.236 1112.4,656.759C1113.06,655.018 1113.72,653.278 1114.38,651.537C1119.31,639.571 1124.35,627.646 1129.71,615.87C1131.65,611.494 1137.84,614.245 1135.9,618.621Z" style="fill:white;fill-rule:nonzero;"/>
            <path id="path3932-9" d="M1146.3,556.027C1146.07,559.861 1146.48,563.53 1147.99,567.052C1149.77,571.496 1143.49,574.019 1141.7,569.575C1140.03,565.194 1139.19,560.755 1139.53,556.027C1139.53,551.239 1146.3,551.239 1146.3,556.027Z" style="fill:white;fill-rule:nonzero;"/>
            <path id="path3934" d="M1220.11,621.732C1208.75,618.865 1197.78,623.612 1187.94,628.927C1178.93,635.016 1169.98,642.898 1165.67,653.207C1165.14,654.47 1164.93,655.846 1164.57,657.165C1164.62,658.117 1164.49,659.095 1164.72,660.019C1165.78,664.236 1175.21,664.622 1178.36,664.839C1185.6,664.808 1208.36,661.283 1213.67,658.225C1218.73,656.41 1222.26,661.618 1218.51,663.319L1215.99,664.242C1207.84,667.265 1185.73,671.613 1177.83,671.59C1170.11,670.926 1159.4,669.59 1157.95,660.047C1157.71,658.461 1158.04,656.839 1158.08,655.235C1158.62,653.484 1158.99,651.667 1159.71,649.983C1164.66,638.502 1174.58,629.701 1184.74,622.957C1196.69,616.611 1208.58,611.781 1222.25,615.308C1226.8,616.822 1224.65,623.247 1220.11,621.732L1220.11,621.732Z" style="fill:white;fill-rule:nonzero;"/>
            <path id="path3936" d="M1298.22,523.83C1294.14,541.067 1292.03,558.704 1289.4,576.203C1285.76,601.04 1280.91,625.698 1274.99,650.089C1273.76,653.834 1270.15,676.956 1263.07,675.615C1261.29,675.277 1260.13,673.486 1258.66,672.421C1255.56,663.688 1252.81,654.492 1251.85,645.244C1252.06,643.938 1251.94,642.527 1252.49,641.324C1255.76,634.193 1264.73,634.083 1271.3,632.917C1273.55,632.517 1275.79,632.053 1278.04,631.621C1293.21,628.767 1307.78,623.573 1322.49,618.99C1325.66,618.241 1331.74,615.526 1334.26,619.69C1336.98,624.188 1333.04,631.103 1331.47,635.115C1327.04,646.035 1321.79,656.718 1319.18,668.269C1319.23,669.041 1319.06,669.86 1319.32,670.586C1319.74,671.714 1320.38,670.226 1320.79,670.044C1321.55,669.699 1322.43,669.655 1323.21,669.363C1327.81,667.659 1328.29,667.106 1332.91,664.48C1345.84,656.567 1357.42,646.742 1369.05,637.084C1372.68,634.224 1379.19,628.339 1383.73,633.617C1385.74,635.964 1385.28,639.209 1385.29,641.931C1384.8,648.448 1383.55,654.884 1383.42,661.425C1383.31,666.212 1376.54,666.057 1376.65,661.269C1376.82,654.735 1377.91,648.297 1378.52,641.795C1378.84,636.754 1378.58,639.697 1380.44,638.322C1382.61,636.723 1367.64,643.081 1373.38,642.294C1361.43,652.211 1349.53,662.291 1336.23,670.383C1330.38,673.645 1315.46,682.544 1312.55,670.715C1312.24,669.434 1312.57,668.077 1312.58,666.757C1315.33,654.893 1320.51,643.846 1325.17,632.64C1325.83,630.957 1326.54,629.29 1327.16,627.592C1327.56,626.498 1327.55,625.206 1328.24,624.268C1328.48,623.936 1329.05,624.465 1329.46,624.465C1329.93,624.466 1331.34,624.382 1330.87,624.271C1329.21,623.871 1325.37,625.229 1324.5,625.455C1309.56,630.113 1294.74,635.381 1279.32,638.271C1257.67,642.423 1285.11,637.238 1266.69,640.507C1266.3,640.576 1259.75,641.769 1259.13,642.651C1258.74,643.202 1258.77,643.95 1258.59,644.599C1259.28,652.697 1262.18,660.519 1264.1,668.386C1263.54,668.549 1262.9,668.553 1262.42,668.875C1261.93,669.197 1261.08,670.766 1261.31,670.231C1261.59,669.588 1262.27,669.177 1262.56,668.54C1265.46,662.219 1266.44,655.092 1268.41,648.491C1274.29,624.297 1279.09,599.834 1282.7,575.197C1285.37,557.483 1287.51,539.632 1291.65,522.187C1292.81,517.542 1299.38,519.184 1298.22,523.83L1298.22,523.83Z" style="fill:white;fill-rule:nonzero;"/>
            <path id="path3938" d="M1420.76,674.445C1421.28,659.559 1425.33,646.401 1431.4,632.911C1437,622.449 1444.42,612.258 1455.9,607.821C1457.51,607.202 1459.22,606.92 1460.88,606.47C1465.52,605.275 1467.2,611.833 1462.57,613.028C1450.26,615.97 1443.35,624.942 1437.57,635.705C1431.99,647.959 1428,660.88 1427.53,674.445C1427.53,679.233 1420.76,679.233 1420.76,674.445Z" style="fill:white;fill-rule:nonzero;"/>
            <path id="path3940" d="M1483.2,654.325C1492.16,648.823 1501,643.086 1508.82,636.026C1509.91,634.36 1514.96,630.573 1513.75,627.872C1513.59,627.508 1512.96,627.786 1512.56,627.76C1505.45,625.205 1500.29,627.029 1494.28,631.086C1488.13,636.76 1484.14,644.939 1484.03,653.418C1484,655.207 1484.33,656.982 1484.48,658.765C1486.31,666.738 1490.81,674.901 1499.36,677.15C1500.97,677.575 1502.68,677.492 1504.34,677.663C1519.07,675.948 1530.74,666.724 1541.12,656.83C1545.19,652.867 1548.45,648.212 1551.87,643.707C1552.45,642.948 1552.92,642.084 1553.63,641.449C1554.33,640.824 1555.13,639.725 1556.04,639.99C1557.95,640.553 1559.23,642.376 1560.83,643.568C1560.87,649.232 1558.15,655.318 1562.22,660.066C1568.6,663.908 1575.35,658.69 1580.43,654.951C1585.73,650.041 1590.33,643.14 1589.62,635.552C1589.5,634.191 1589.05,632.877 1588.77,631.54C1586.56,626.198 1581.06,620.949 1574.74,622.236C1573.53,622.482 1572.43,623.093 1571.27,623.522C1565,627.616 1559.73,634.728 1559.12,642.442C1559.03,643.531 1559.29,644.62 1559.38,645.708C1559.74,646.447 1559.95,647.283 1560.47,647.924C1564.45,652.863 1573.31,647.521 1577.02,645.321C1593.91,632.875 1604.18,614.452 1613.99,596.39C1625.56,573.285 1637.09,550.046 1646.44,525.936C1654.21,535.69 1645.99,517.16 1647.98,518.647C1653.18,522.543 1648.59,526.381 1646.49,530.425C1645,533.294 1643.68,536.253 1642.28,539.167C1630.51,566.644 1622.87,595.669 1616.35,624.774C1612.79,645.293 1608.2,666.109 1609.17,687.056C1609.42,688.41 1609.68,689.764 1609.93,691.118C1610.79,695.83 1604.13,697.039 1603.27,692.327C1602.98,690.669 1602.69,689.011 1602.4,687.353C1601.5,665.8 1605.97,644.403 1609.75,623.294C1616.38,593.686 1624.16,564.158 1636.18,536.222C1637.57,533.349 1644.94,516.305 1649.29,515.733C1655.29,514.944 1655.14,519.342 1654.5,522.39C1654.07,524.427 1653.34,526.388 1652.76,528.387C1643.28,552.76 1631.65,576.271 1619.94,599.625C1609.51,618.786 1598.51,638.232 1580.38,651.199C1578.32,652.348 1576.36,653.733 1574.18,654.645C1567.4,657.481 1558.43,657.46 1554.18,650.443C1553.37,649.102 1553.14,647.488 1552.61,646.011C1552.58,644.331 1552.32,642.641 1552.51,640.971C1553.36,633.337 1558.11,625.154 1564.02,620.323C1565.61,619.025 1567.5,618.148 1569.24,617.06C1571.14,616.529 1572.99,615.68 1574.95,615.467C1582.2,614.679 1589.55,619.237 1593.27,625.287C1594.22,626.832 1594.7,628.616 1595.42,630.281C1595.74,632.149 1596.29,633.991 1596.39,635.883C1596.9,645.572 1591.35,654.224 1584.42,660.427C1577.65,665.298 1568.97,670.977 1560.37,666.747C1559.01,666.078 1557.94,664.931 1556.72,664.023C1555.97,662.874 1555.03,661.827 1554.45,660.578C1552.18,655.634 1553.45,650.043 1554.19,644.924C1555.64,645.378 1557.03,646.072 1558.53,646.285C1558.8,646.324 1559.15,645.397 1558.97,645.605C1554.52,650.935 1550.94,656.992 1545.78,661.737C1533.69,673.217 1520.69,683.111 1503.43,684.375C1501.12,684.011 1498.73,683.981 1496.49,683.284C1485.67,679.92 1479.88,669.659 1477.73,659.257C1477.59,657.033 1477.23,654.812 1477.31,652.585C1477.65,642.081 1482.74,632.224 1490.58,625.419C1492.13,624.431 1493.58,623.283 1495.22,622.454C1502.13,618.963 1510.01,619.007 1516.85,622.518C1517.74,623.418 1518.87,624.129 1519.51,625.219C1522.94,631.057 1516.91,637.194 1513.35,641.059C1505.21,648.352 1496.1,654.386 1486.79,660.067C1482.73,662.605 1479.14,656.863 1483.2,654.325L1483.2,654.325Z" style="fill:white;fill-rule:nonzero;"/>
            <path id="path3938-5" d="M1421.54,668.227C1422.06,653.341 1421.12,660.136 1421.61,644.052C1422.12,639.176 1419.71,627.691 1423.96,626.543C1427.61,627.091 1427.35,632.304 1426.88,646.746C1426.68,661.194 1426.88,656.059 1426.91,670.222C1426.91,675.011 1421.54,673.015 1421.54,668.227L1421.54,668.227Z" style="fill:white;fill-rule:nonzero;"/>
        </g>
    </g>
</svg>
